# Blender 4.0.2
# www.blender.org
mtllib mt_dripstone.mtl
o dripstone_2.001
v 0.125000 0.500000 0.250000
v -0.125000 0.500000 0.250000
v 0.125000 0.500000 0.125000
v -0.125000 0.500000 0.125000
v -0.000000 0.500000 0.125000
v -0.250000 0.500000 0.125000
v -0.000000 0.500000 -0.125000
v -0.250000 0.500000 -0.125000
v 0.250000 0.500000 0.125000
v 0.250000 0.500000 -0.125000
v 0.125000 0.500000 -0.125000
v -0.125000 0.500000 -0.125000
v 0.125000 0.500000 -0.250000
v -0.125000 0.500000 -0.250000
v -0.125000 -0.250000 0.250000
v 0.125000 -0.250000 0.250000
v -0.125000 -0.250000 0.125000
v 0.125000 -0.250000 0.125000
v -0.250000 -0.250000 0.125000
v -0.000000 -0.250000 0.125000
v -0.250000 -0.250000 -0.125000
v -0.000000 -0.250000 -0.125000
v 0.250000 -0.250000 0.125000
v 0.250000 -0.250000 -0.125000
v -0.125000 -0.250000 -0.125000
v 0.125000 -0.250000 -0.125000
v -0.125000 -0.250000 -0.250000
v 0.125000 -0.250000 -0.250000
v -0.132583 -0.500000 0.397748
v -0.132583 -0.250000 0.397748
v -0.397748 -0.500000 0.132583
v -0.397748 -0.250000 0.132583
v -0.000000 -0.500000 0.265165
v -0.000000 -0.250000 0.265165
v -0.265165 -0.500000 0.000000
v -0.265165 -0.250000 0.000000
v -0.132583 -0.500000 0.132583
v -0.132583 0.312500 0.132583
v -0.397748 -0.500000 -0.132583
v -0.397748 0.312500 -0.132583
v 0.132582 -0.500000 -0.132583
v 0.132582 0.312500 -0.132583
v -0.132583 -0.500000 -0.397748
v -0.132583 0.312500 -0.397748
v 0.132583 -0.500000 0.397748
v 0.132583 0.125000 0.397748
v -0.132583 0.125000 0.132583
v 0.397748 -0.500000 0.132583
v 0.397748 0.125000 0.132583
v 0.132583 0.125000 -0.132582
v 0.265165 -0.500000 -0.000000
v 0.265165 -0.062500 -0.000000
v 0.000000 -0.500000 -0.265165
v 0.000000 -0.062500 -0.265165
v 0.397748 -0.500000 -0.132583
v 0.397748 -0.062500 -0.132583
v 0.132583 -0.500000 -0.397748
v 0.132583 -0.062500 -0.397748
v -0.044194 1.500000 0.132583
v -0.044194 1.750000 0.132583
v -0.132583 1.500000 0.044194
v -0.132583 1.750000 0.044194
v -0.000000 1.500000 0.088388
v -0.000000 1.750000 0.088388
v -0.088388 1.500000 0.000000
v -0.088388 1.750000 0.000000
v -0.062500 1.750000 0.062500
v -0.062500 2.500000 0.062500
v -0.062500 1.750000 -0.062500
v -0.062500 2.500000 -0.062500
v 0.062500 1.750000 0.062500
v 0.062500 2.500000 0.062500
v 0.062500 1.750000 -0.062500
v 0.062500 2.500000 -0.062500
v -0.044194 2.312500 0.044194
v -0.132583 1.500000 -0.044194
v -0.132583 2.312500 -0.044194
v 0.044194 2.312500 -0.044194
v -0.044194 1.500000 -0.132583
v -0.044194 2.312500 -0.132583
v 0.044194 1.500000 0.132583
v 0.044194 2.125000 0.132583
v -0.044194 1.500000 0.044194
v -0.044194 2.125000 0.044194
v 0.132583 1.500000 0.044194
v 0.132583 2.125000 0.044194
v 0.044194 1.500000 -0.044194
v 0.044194 2.125000 -0.044194
v 0.088388 1.500000 -0.000000
v 0.088388 1.937500 -0.000000
v 0.000000 1.500000 -0.088388
v 0.000000 1.937500 -0.088388
v 0.132583 1.500000 -0.044194
v 0.132583 1.937500 -0.044194
v 0.044194 1.500000 -0.132583
v 0.044194 1.937500 -0.132583
v 0.125000 0.500000 0.250000
v 0.125000 0.750000 0.250000
v -0.125000 0.500000 0.250000
v -0.125000 0.750000 0.250000
v 0.125000 0.500000 0.125000
v 0.125000 0.750000 0.125000
v -0.125000 0.500000 0.125000
v -0.125000 0.750000 0.125000
v 0.000000 0.750000 0.176777
v 0.000000 1.500000 0.176777
v -0.176777 0.750000 -0.000000
v -0.176777 1.500000 -0.000000
v 0.176777 0.750000 0.000000
v 0.176777 1.500000 0.000000
v 0.000000 0.750000 -0.176777
v 0.000000 1.500000 -0.176777
v -0.000000 1.312500 0.125000
v -0.250000 0.500000 0.125000
v -0.250000 1.312500 0.125000
v -0.000000 1.312500 -0.125000
v -0.250000 0.500000 -0.125000
v -0.250000 1.312500 -0.125000
v 0.250000 0.500000 0.125000
v 0.250000 1.125000 0.125000
v 0.000000 0.500000 0.125000
v 0.000000 1.125000 0.125000
v 0.250000 0.500000 -0.125000
v 0.250000 1.125000 -0.125000
v 0.000000 0.500000 -0.125000
v 0.000000 1.125000 -0.125000
v 0.125000 0.500000 -0.125000
v 0.125000 0.937500 -0.125000
v -0.125000 0.500000 -0.125000
v -0.125000 0.937500 -0.125000
v 0.125000 0.500000 -0.250000
v 0.125000 0.937500 -0.250000
v -0.125000 0.500000 -0.250000
v -0.125000 0.937500 -0.250000
vn -0.0000 1.0000 -0.0000
vn -0.0000 -0.0000 -1.0000
vn 1.0000 -0.0000 -0.0000
vn -0.0000 -0.0000 1.0000
vn -1.0000 -0.0000 -0.0000
vn -0.7071 -0.0000 0.7071
vn -0.7071 -0.0000 -0.7071
vn 0.7071 -0.0000 0.7071
vn -0.0000 -1.0000 -0.0000
vn 0.7071 -0.0000 -0.7071
vt 0.614583 1.937500
vt 0.614583 1.687500
vt 0.739583 1.687500
vt 0.739583 1.937500
vt -0.604167 1.687500
vt -0.604167 1.437500
vt -0.354167 1.437500
vt -0.354167 1.687500
vt -0.604167 1.218750
vt -0.354167 1.218750
vt 0.239583 1.937500
vt 0.239583 1.687500
vt 0.364583 1.687500
vt 0.364583 1.937500
vt 0.364583 -0.218750
vt 0.614583 -0.218750
vt 0.614583 0.531250
vt 0.364583 0.531250
vt 1.239583 -1.000000
vt 1.333333 -1.000000
vt 1.333333 -0.250000
vt 1.239583 -0.250000
vt -0.354167 0.531250
vt -0.135417 0.531250
vt -0.135417 1.250000
vt -0.354167 1.250000
vt -0.135417 -0.218750
vt 0.114583 -0.218750
vt 0.114583 0.531250
vt 0.364583 1.250000
vt 0.114583 1.250000
vt -0.979167 0.593750
vt -0.854167 0.593750
vt -0.854167 1.312500
vt -0.979167 1.312500
vt 0.614583 -0.250000
vt 0.864583 -0.250000
vt 0.864583 0.468750
vt 0.614583 0.468750
vt -0.729167 0.593750
vt -0.729167 1.312500
vt -0.354167 -0.218750
vt -0.604167 0.593750
vt -0.604167 1.312500
vt 1.958333 -0.031250
vt 1.708333 -0.031250
vt 1.708333 -0.375000
vt 1.958333 -0.375000
vt 1.708333 1.312500
vt 1.708333 1.093750
vt 1.895833 1.093750
vt 1.895833 1.312500
vt -0.791667 1.937500
vt -0.791667 1.687500
vt -0.604167 1.937500
vt 1.895833 0.718750
vt 1.708333 0.718750
vt 1.708333 0.343750
vt 1.895833 0.343750
vt -0.604167 -0.218750
vt -0.604167 -1.000000
vt -0.229167 -1.000000
vt -0.229167 -0.218750
vt -0.979167 -0.218750
vt -0.979167 -1.000000
vt 0.114583 -1.000000
vt 0.989583 -0.250000
vt 0.614583 -0.625000
vt 0.989583 -0.625000
vt 1.239583 1.937500
vt 1.239583 1.562500
vt 1.583333 1.562500
vt 1.583333 1.937500
vt 1.239583 0.968750
vt 1.239583 0.343750
vt 1.583333 0.343750
vt 1.583333 0.968750
vt 1.583333 -0.250000
vt 0.614583 -1.000000
vt 0.989583 -1.000000
vt 1.583333 1.812500
vt 1.583333 1.437500
vt 1.958333 1.437500
vt 1.958333 1.812500
vt -0.135417 1.687500
vt 0.052083 1.250000
vt 0.052083 1.687500
vt 0.864583 1.625000
vt 0.864583 1.218750
vt 1.239583 1.218750
vt 1.239583 1.625000
vt 0.239583 1.250000
vt -0.791667 1.312500
vt 1.895833 -0.031250
vt 1.833333 -0.750000
vt 1.833333 -1.000000
vt 1.958333 -1.000000
vt 1.958333 -0.750000
vt -0.916667 1.562500
vt -0.916667 1.312500
vt -0.854167 1.562500
vt 1.895833 0.218750
vt 1.958333 0.218750
vt 1.895833 -0.375000
vt 1.833333 -0.375000
vt 1.833333 -0.500000
vt 1.895833 -0.500000
vt 1.895833 1.437500
vt 1.833333 1.437500
vt 1.833333 1.312500
vt 1.114583 0.468750
vt 1.114583 -0.250000
vt 1.239583 0.468750
vt 1.114583 1.218750
vt 0.489583 0.531250
vt 0.489583 1.250000
vt 0.614583 1.250000
vt 1.458333 -0.250000
vt 1.333333 -0.375000
vt 1.458333 -0.375000
vt -0.479167 -0.218750
vt -0.479167 0.593750
vt -0.354167 0.593750
vt -0.729167 -0.218750
vt 0.489583 1.937500
vt 0.489583 1.812500
vt 0.614583 1.812500
vt 1.583333 -0.375000
vt 1.583333 0.218750
vt 1.708333 0.218750
vt 1.583333 0.843750
vt 1.708333 0.843750
vt 1.708333 1.437500
vt 0.489583 1.687500
vt -0.979167 1.750000
vt -0.916667 1.750000
vt -0.854167 1.750000
vt -0.791667 1.750000
vt -0.854167 1.687500
vt -0.916667 1.687500
vt -0.791667 1.875000
vt -0.854167 1.875000
vt -0.354167 1.937500
vt -0.135417 1.937500
vt 1.958333 -0.500000
vt 0.864583 1.937500
vt 0.864583 1.687500
vt -0.854167 2.000000
vt -0.979167 2.000000
vt 0.614583 1.218750
vt 0.364583 -1.000000
vt 0.614583 1.437500
vt 0.864583 1.437500
vt 1.114583 1.875000
vt 0.864583 1.875000
vt 1.114583 1.625000
vt 1.583333 -1.000000
vt 0.114583 1.937500
vt 0.114583 1.687500
vt 1.239583 1.875000
s 0
usemtl Material
f 2/1/1 1/2/1 3/3/1 4/4/1
f 6/5/1 5/6/1 7/7/1 8/8/1
f 5/6/1 9/9/1 10/10/1 7/7/1
f 12/11/1 11/12/1 13/13/1 14/14/1
f 7/15/2 10/16/2 24/17/2 22/18/2
f 3/19/3 1/20/3 16/21/3 18/22/3
f 10/23/3 9/24/3 23/25/3 24/26/3
f 5/27/4 6/28/4 19/29/4 20/24/4
f 6/29/5 8/18/5 21/30/5 19/31/5
f 12/32/5 14/33/5 27/34/5 25/35/5
f 8/28/2 7/15/2 22/18/2 21/29/2
f 14/36/2 13/37/2 28/38/2 27/39/2
f 1/24/4 2/29/4 15/31/4 16/25/4
f 13/33/3 11/40/3 26/41/3 28/34/3
f 9/42/4 5/27/4 20/24/4 23/23/4
f 2/40/5 4/43/5 17/44/5 15/41/5
f 29/45/6 30/46/6 32/47/6 31/48/6
f 31/49/7 32/50/7 36/51/7 35/52/7
f 33/53/8 34/54/8 30/5/8 29/55/8
f 31/56/9 35/57/9 33/58/9 29/59/9
f 36/51/1 32/50/1 30/57/1 34/56/1
f 37/60/6 38/61/6 40/62/6 39/63/6
f 39/64/7 40/65/7 44/61/7 43/60/7
f 43/63/10 44/62/10 42/66/10 41/28/10
f 39/67/9 43/36/9 41/68/9 37/69/9
f 44/70/1 40/71/1 38/72/1 42/73/1
f 45/74/6 46/75/6 47/76/6 37/77/6
f 41/75/10 50/22/10 49/78/10 48/76/10
f 48/71/8 49/74/8 46/77/8 45/72/8
f 37/69/9 41/68/9 48/79/9 45/80/9
f 50/81/1 47/82/1 46/83/1 49/84/1
f 53/85/7 54/25/7 58/86/7 57/87/7
f 57/88/10 58/89/10 56/90/10 55/91/10
f 55/87/8 56/86/8 52/92/8 51/12/8
f 53/5/9 57/54/9 55/93/9 51/44/9
f 58/59/1 54/58/1 52/46/1 56/94/1
f 59/95/6 60/96/6 62/97/6 61/98/6
f 61/99/7 62/100/7 66/34/7 65/101/7
f 63/102/8 64/94/8 60/45/8 59/103/8
f 61/104/9 65/105/9 63/106/9 59/107/9
f 66/108/1 62/109/1 60/110/1 64/52/1
f 67/111/5 68/112/5 70/22/5 69/113/5
f 69/114/2 70/111/2 74/113/2 73/90/2
f 73/30/3 74/18/3 72/115/3 71/116/3
f 71/116/4 72/115/4 68/17/4 67/117/4
f 74/118/1 70/21/1 68/119/1 72/120/1
f 83/43/6 75/60/6 77/121/6 76/122/6
f 76/122/7 77/121/7 80/42/7 79/123/7
f 79/40/10 80/124/10 78/60/10 87/43/10
f 76/1/9 79/125/9 87/126/9 83/127/9
f 80/78/1 77/118/1 75/120/1 78/128/1
f 81/129/6 82/128/6 84/47/6 83/130/6
f 87/131/10 88/129/10 86/130/10 85/132/10
f 85/82/8 86/131/8 82/132/8 81/133/8
f 83/127/9 87/126/9 85/134/9 81/2/9
f 88/109/1 84/133/1 82/49/1 86/110/1
f 91/135/7 92/35/7 96/100/7 95/136/7
f 95/12/10 96/92/10 94/30/10 93/13/10
f 93/137/8 94/34/8 90/93/8 89/138/8
f 91/139/9 95/140/9 93/99/9 89/101/9
f 96/141/1 92/142/1 90/137/1 94/138/1
f 97/143/4 98/8/4 100/85/4 99/144/4
f 99/14/5 100/13/5 104/134/5 103/125/5
f 101/106/3 102/95/3 98/98/3 97/145/3
f 99/146/9 103/4/9 101/3/9 97/147/9
f 104/148/1 100/149/1 98/135/1 102/137/1
f 105/38/6 106/37/6 108/112/6 107/111/6
f 107/89/7 108/38/7 112/111/7 111/114/7
f 111/67/10 112/80/10 110/19/10 109/22/10
f 109/150/8 110/39/8 106/38/8 105/89/8
f 112/143/1 108/55/1 106/5/1 110/8/1
f 121/32/4 113/64/4 115/124/4 114/40/4
f 114/15/5 115/151/5 118/79/5 117/16/5
f 117/28/2 118/66/2 116/151/2 125/15/2
f 114/147/9 117/2/9 125/152/9 121/153/9
f 118/154/1 115/155/1 113/88/1 116/156/1
f 119/128/4 120/157/4 122/96/4 121/105/4
f 125/9/2 126/43/2 124/123/2 123/10/2
f 123/119/3 124/20/3 120/157/3 119/128/3
f 121/153/9 125/152/9 123/150/9 119/89/9
f 126/158/1 122/144/1 120/85/1 124/159/1
f 129/13/5 130/30/5 134/116/5 133/134/5
f 133/8/2 134/26/2 132/25/2 131/85/2
f 131/134/3 132/116/3 128/117/3 127/2/3
f 129/11/9 133/158/9 131/159/9 127/12/9
f 134/160/1 130/154/1 128/156/1 132/91/1
