# Blender 4.0.2
# www.blender.org
mtllib stones_dripstone_2.mtl
o dripstone_1
v 0.125000 -0.500000 0.250000
v 0.125000 -0.250000 0.250000
v -0.125000 -0.500000 0.250000
v -0.125000 -0.250000 0.250000
v 0.125000 -0.500000 0.125000
v 0.125000 -0.250000 0.125000
v -0.125000 -0.500000 0.125000
v -0.125000 -0.250000 0.125000
v 0.000000 -0.250000 0.176777
v 0.000000 0.500000 0.176777
v -0.176777 -0.250000 -0.000000
v -0.176777 0.500000 -0.000000
v 0.176777 -0.250000 0.000000
v 0.176777 0.500000 0.000000
v 0.000000 -0.250000 -0.176777
v 0.000000 0.500000 -0.176777
v -0.000000 0.312500 0.125000
v -0.250000 -0.500000 0.125000
v -0.250000 0.312500 0.125000
v -0.000000 0.312500 -0.125000
v -0.250000 -0.500000 -0.125000
v -0.250000 0.312500 -0.125000
v 0.250000 -0.500000 0.125000
v 0.250000 0.125000 0.125000
v 0.000000 -0.500000 0.125000
v 0.000000 0.125000 0.125000
v 0.250000 -0.500000 -0.125000
v 0.250000 0.125000 -0.125000
v 0.000000 -0.500000 -0.125000
v 0.000000 0.125000 -0.125000
v 0.125000 -0.500000 -0.125000
v 0.125000 -0.062500 -0.125000
v -0.125000 -0.500000 -0.125000
v -0.125000 -0.062500 -0.125000
v 0.125000 -0.500000 -0.250000
v 0.125000 -0.062500 -0.250000
v -0.125000 -0.500000 -0.250000
v -0.125000 -0.062500 -0.250000
vn -0.0000 -0.0000 1.0000
vn -1.0000 -0.0000 -0.0000
vn 1.0000 -0.0000 -0.0000
vn -0.0000 -1.0000 -0.0000
vn -0.0000 1.0000 -0.0000
vn -0.7071 -0.0000 0.7071
vn -0.7071 -0.0000 -0.7071
vn 0.7071 -0.0000 -0.7071
vn 0.7071 -0.0000 0.7071
vn -0.0000 -0.0000 -1.0000
vt -0.354167 1.937500
vt -0.354167 1.687500
vt -0.135417 1.687500
vt -0.135417 1.937500
vt 0.364583 1.937500
vt 0.364583 1.687500
vt 0.489583 1.687500
vt 0.489583 1.937500
vt 1.833333 -0.500000
vt 1.833333 -0.750000
vt 1.958333 -0.750000
vt 1.958333 -0.500000
vt 0.864583 1.937500
vt 0.739583 1.937500
vt 0.739583 1.687500
vt 0.864583 1.687500
vt -0.854167 2.000000
vt -0.979167 2.000000
vt -0.979167 1.750000
vt -0.854167 1.750000
vt 0.864583 0.468750
vt 0.864583 -0.250000
vt 1.114583 -0.250000
vt 1.114583 0.468750
vt 0.864583 1.218750
vt 1.114583 1.218750
vt 0.989583 -0.250000
vt 0.989583 -1.000000
vt 1.239583 -1.000000
vt 1.239583 -0.250000
vt 0.614583 1.218750
vt 0.614583 0.468750
vt -0.604167 1.937500
vt -0.604167 1.687500
vt -0.979167 0.593750
vt -0.979167 -0.218750
vt -0.729167 -0.218750
vt -0.729167 0.593750
vt 0.364583 -0.218750
vt 0.364583 -1.000000
vt 0.614583 -1.000000
vt 0.614583 -0.218750
vt 0.114583 -0.218750
vt 0.114583 -1.000000
vt 0.614583 1.687500
vt 0.614583 1.437500
vt 0.864583 1.437500
vt 1.114583 1.875000
vt 0.864583 1.875000
vt 0.864583 1.625000
vt 1.114583 1.625000
vt 1.583333 -0.375000
vt 1.583333 -1.000000
vt 1.833333 -1.000000
vt 1.833333 -0.375000
vt -0.604167 1.218750
vt -0.604167 0.593750
vt -0.354167 0.593750
vt -0.354167 1.218750
vt 1.333333 -0.375000
vt 1.333333 -1.000000
vt 0.114583 1.937500
vt 0.114583 1.687500
vt 0.364583 1.250000
vt 0.489583 1.250000
vt -0.354167 1.250000
vt -0.135417 1.250000
vt 0.614583 1.250000
vt 0.239583 1.937500
vt 0.239583 1.687500
vt 1.239583 1.875000
vt 1.239583 1.625000
s 0
usemtl Material3
f 1/1/1 2/2/1 4/3/1 3/4/1
f 3/5/2 4/6/2 8/7/2 7/8/2
f 5/9/3 6/10/3 2/11/3 1/12/3
f 3/13/4 7/14/4 5/15/4 1/16/4
f 8/17/5 4/18/5 2/19/5 6/20/5
f 9/21/6 10/22/6 12/23/6 11/24/6
f 11/25/7 12/21/7 16/24/7 15/26/7
f 15/27/8 16/28/8 14/29/8 13/30/8
f 13/31/9 14/32/9 10/21/9 9/25/9
f 16/1/5 12/33/5 10/34/5 14/2/5
f 25/35/1 17/36/1 19/37/1 18/38/1
f 18/39/2 19/40/2 22/41/2 21/42/2
f 21/43/10 22/44/10 20/40/10 29/39/10
f 18/16/4 21/45/4 29/46/4 25/47/4
f 22/48/5 19/49/5 17/50/5 20/51/5
f 23/52/1 24/53/1 26/54/1 25/55/1
f 29/56/10 30/57/10 28/58/10 27/59/10
f 27/60/3 28/61/3 24/53/3 23/52/3
f 25/47/4 29/46/4 27/31/4 23/25/4
f 30/62/5 26/4/5 24/3/5 28/63/5
f 33/6/2 34/64/2 38/65/2 37/7/2
f 37/2/10 38/66/10 36/67/10 35/3/10
f 35/7/3 36/65/3 32/68/3 31/45/3
f 33/69/4 37/62/4 35/63/4 31/70/4
f 38/71/5 34/48/5 32/51/5 36/72/5
